<svg id="visual" viewBox="0 0 900 600" width="900" height="600" xmlns="http://www.w3.org/2000/svg" xmlns:xlink="http://www.w3.org/1999/xlink" version="1.1"><path d="M0 510L25 512.8C50 515.7 100 521.3 150 515.3C200 509.3 250 491.7 300 485.8C350 480 400 486 450 489.7C500 493.3 550 494.7 600 498.3C650 502 700 508 750 516.2C800 524.3 850 534.7 875 539.8L900 545L900 601L875 601C850 601 800 601 750 601C700 601 650 601 600 601C550 601 500 601 450 601C400 601 350 601 300 601C250 601 200 601 150 601C100 601 50 601 25 601L0 601Z" fill="#080c14" stroke-linecap="round" stroke-linejoin="miter"></path></svg>