<svg id="visual" viewBox="0 0 900 600" width="900" height="600" xmlns="http://www.w3.org/2000/svg" xmlns:xlink="http://www.w3.org/1999/xlink" version="1.1"><path d="M0 505L16.7 500.7C33.3 496.3 66.7 487.7 100 493.5C133.3 499.3 166.7 519.7 200 530.3C233.3 541 266.7 542 300 532.2C333.3 522.3 366.7 501.7 400 495.7C433.3 489.7 466.7 498.3 500 507.3C533.3 516.3 566.7 525.7 600 522.5C633.3 519.3 666.7 503.7 700 503.3C733.3 503 766.7 518 800 526C833.3 534 866.7 535 883.3 535.5L900 536L900 601L883.3 601C866.7 601 833.3 601 800 601C766.7 601 733.3 601 700 601C666.7 601 633.3 601 600 601C566.7 601 533.3 601 500 601C466.7 601 433.3 601 400 601C366.7 601 333.3 601 300 601C266.7 601 233.3 601 200 601C166.7 601 133.3 601 100 601C66.7 601 33.3 601 16.7 601L0 601Z" fill="#080c14" stroke-linecap="round" stroke-linejoin="miter"></path></svg>